<?xml version="1.0" encoding="utf-8"?>
<!-- Generator: Adobe Illustrator 22.1.0, SVG Export Plug-In . SVG Version: 6.00 Build 0)  -->
<svg version="1.1" id="Layer_1" xmlns="http://www.w3.org/2000/svg" xmlns:xlink="http://www.w3.org/1999/xlink" x="0px" y="0px"
	 viewBox="0 0 500 600" style="enable-background:new 0 0 500 600;" xml:space="preserve">
<style type="text/css">
	.st0{fill:#33569A;}
	.st1{fill:#010101;}
</style>
<g id="Layer_1_1_">
	<path class="st0" d="M284.5,134.6c-6.6-0.3-12.9-2.1-17.5-6.8c-5.1-5.2-6.7-12.5-6.7-19.9c0-7.4,2.5-13.8,7.6-19.2
		c3.9-4.2,8.6-6.7,14-7.6c-5.8-17.3-17.3-33.7-38.7-39.8c-16.3-5.8-35.7-3.7-66.3,8C123.4,76,86.3,165.7,97.7,277.8
		c1.6,15.2,4.6,31,8,47c-1.4-111.4,18.6-172.4,42.5-205.1C179,78,207.3,81.9,222.9,86.4c30,8.5,26.6,49.6,6.1,77.3
		c-20.5,27.7-44.4,46.6-84.4,42.4c92.3,53.8,82.7,142.2,74.9,169.5c-12.4,43.7-63.1,83.4-125,65.9c-65.3-19.6-84.3-96.6-12.9-196.6
		c-30.3,20.7-56.6,55-67.1,92.8c-16.6,59.5,5.4,131.9,86.2,155.9c40.8,11.6,91.9-5.2,121.7-35.4c17.1-17.3,27.7-38.8,31.5-60.2
		c2.5-14.7,12.5-115.6-61.2-178.4C263.9,199,279.4,154.3,284.5,134.6z"/>
</g>
<g id="Layer_4">
	<g>
		<g>
			<path id="SVGID_1_" class="st1" d="M432.7,444.4c33.1,2,55.6-25,55.6-25s-6-17-26.9-6.6c-20.6,8.6-32.6,10.6-44.4-0.7
				c-7.6-7.2-10.6-13.2-11.7-24.5c0,0,20.1,3.2,40.1-0.3c21.1-3.8,42.2-13.4,42.2-39c0-7.7-3.1-18.6-11.1-27.2
				c-8.6-9.2-26.9-16.5-42.1-16.5c-18.4,0-65.8,9.9-65.8,72c0,6.9,1,31.3,21.3,50.1C399.4,436.1,413.1,443.2,432.7,444.4
				L432.7,444.4z M433.2,329.1c30.5-0.4,21.8,24,20,26.8c-14,16.6-42,8.6-49.5,7.9C404.2,360.9,404.8,331.8,433.2,329.1L433.2,329.1
				z"/>
		</g>
	</g>
	<path class="st1" d="M331.7,420.2c-20.6,8.6-32.6,10.6-44.4-0.7c-7.6-7.2-10.6-13.2-11.7-24.5c0,0,20.1,3.2,40.1-0.3
		c21.1-3.8,42.2-13.4,42.2-39c0-7.7-3.1-18.6-11.1-27.2c-8.6-9.2-26.9-16.5-42.1-16.5c-10.3,0-29.6,3.1-44.6,16.6
		c6.1,34,3,62,1.7,69.3c-1.7,9.4-4.8,18.8-9.2,27.8c2.2,2.9,4.7,5.7,7.6,8.4c9.5,9.4,23.1,16.5,42.8,17.7c33.1,2,55.6-25,55.6-25
		S352.6,409.8,331.7,420.2z M303.5,336.5c30.5-0.4,21.8,24,20,26.8c-14,16.6-42,8.6-49.5,7.9C274.5,368.3,275.1,339.2,303.5,336.5z"
		/>
</g>
<g id="Layer_3">
	<g>
		<g>
			<g>
				<path id="SVGID_3_" class="st1" d="M390.3,291.5c8.5,0,13.7-3,18.3-6.2c6.1-4.4,11.4-12.3,8.2-24.1c-8.1,2.9-36.1,14.6-46-25.2
					c-2.7-28.2-2.7-55.3-2.7-55.3l11.2-0.7c20.9,0,28.1-19.4,25.6-30.2c-8.3,0.9-38.4,2-38.4,2s-3.6-41.3-2-46.6
					c-19,1.7-34.8,6-34.8,34.4l4.7,86C334.4,256.8,357.7,291.5,390.3,291.5L390.3,291.5z"/>
			</g>
		</g>
	</g>
	<g>
		<g>
			<path id="SVGID_5_" class="st1" d="M307.1,295c22.1,0,27-9.9,26.5-29.3c-9.1,5.4-14.7,5.3-18.2,0.1c-3.1-4.6-3.1-13.2-3.9-25.5
				c-0.5-7.7-1.4-16.9-1.6-27.5c-1.1-31.4-2-54.2-2-54.2c-9.4,1-20.8,1.3-28.4,10.8c-6.1,7.6-6.3,21-5.4,39
				c0.9,17.9,2.7,48.6,2.7,48.6C277.4,287.3,296,295.5,307.1,295C307.1,295,287.8,295,307.1,295L307.1,295z"/>
		</g>
	</g>
</g>
<g id="Layer_2_1_">
	<path d="M272.6,122c3.6,3.7,8.7,4.9,13.9,4.9c5.2,0,9.5-1.8,13-5.5c3.5-3.7,5.3-8.2,5.3-13.5c0-5.3-1.1-9.8-4.6-13.6
		c-3.5-3.8-8.5-5.7-13.7-5.7c-5.3,0-9.7,1.9-13.3,5.7c-3.6,3.8-5.4,8.3-5.4,13.6C267.8,113.1,269,118.3,272.6,122L272.6,122z"/>
	<g>
		<g>
			<path d="M33.3,533.2c-1-0.9-2-1.4-3-1.7c-1-0.3-2.2-0.4-3.4-0.4c-2.8,0-4.9,0.7-6.1,2s-1.8,3.6-1.8,6.7v5.3h12.8v2.6
				c0,1-0.4,1.9-1.2,2.7c-0.8,0.8-2,1.2-3.6,1.2h-8v30.3h-2.8c-1.6,0-2.8-0.5-3.5-1.4c-0.7-1-1.1-2.2-1.1-3.8v-37.7
				c0-1.9,0.3-3.7,1-5.5c0.6-1.8,1.6-3.4,2.8-4.8c1.2-1.4,2.7-2.5,4.5-3.3c1.7-0.8,3.7-1.2,6-1.2c1.3,0,2.4,0.2,3.4,0.5
				c1,0.3,1.8,0.7,2.4,1.3c0.7,0.5,1.2,1.1,1.5,1.7c0.3,0.6,0.5,1.2,0.5,1.7v3.9L33.3,533.2L33.3,533.2z"/>
			<path d="M77.2,559.6c0,3.6-0.5,6.9-1.4,9.7c-0.9,2.8-2.2,5.3-3.9,7.3c-1.7,2-3.7,3.5-6.1,4.6c-2.4,1-5,1.6-7.9,1.6
				c-2.8,0-5.5-0.5-7.9-1.6c-2.4-1-4.5-2.5-6.3-4.4c-1.8-1.9-3.2-4.2-4.2-6.8c-1-2.6-1.5-5.5-1.5-8.7c0-3.5,0.5-6.7,1.4-9.5
				c0.9-2.8,2.3-5.2,4-7.2c1.7-2,3.8-3.5,6.3-4.6c2.4-1.1,5.2-1.6,8.2-1.6c2.8,0,5.4,0.5,7.8,1.5c2.4,1,4.4,2.5,6.1,4.3
				c1.7,1.9,3,4.1,3.9,6.7C76.7,553.4,77.2,556.4,77.2,559.6z M69.8,561.3c0-5.3-1.1-9.4-3.3-12.1c-2.2-2.7-5.4-4.1-9.6-4.1
				c-3.5,0-6.3,1.3-8.3,3.9s-3.1,6.1-3.1,10.6c0,5,1.2,8.9,3.5,11.8c2.3,2.9,5.6,4.3,9.8,4.3c1.8,0,3.4-0.4,4.8-1.1
				c1.4-0.7,2.6-1.7,3.5-3c0.9-1.3,1.6-2.8,2.1-4.6C69.6,565.3,69.8,563.3,69.8,561.3z"/>
			<path d="M109.5,547.9c-0.7-0.6-1.6-1.1-2.7-1.5s-2.4-0.6-3.9-0.6c-1.4,0-2.7,0.2-3.7,0.6c-1,0.4-1.8,1.1-2.4,2
				c-0.6,0.9-1.1,2.1-1.4,3.7c-0.3,1.5-0.4,3.4-0.4,5.8v24.1h-3.2c-1.4,0-2.4-0.5-3.1-1.4s-1.1-2.1-1.1-3.5v-19.7
				c0-6,1.3-10.5,4-13.6c2.6-3.1,6.1-4.6,10.2-4.6c2.9,0,5,0.5,6.2,1.6c1.2,1.1,1.8,2.3,1.8,3.8v3.5L109.5,547.9L109.5,547.9z"/>
			<path d="M142.2,539H157v2.4c0,1.3-0.5,2.4-1.4,3.2c-0.9,0.8-2.3,1.2-4.3,1.2h-9.1v21.3c0,3.1,0.6,5.3,1.8,6.6
				c1.2,1.4,2.9,2.1,5.3,2.1c1.3,0,2.6-0.1,3.8-0.2c1.2-0.2,2.2-0.5,2.9-1h0.4v2.6c0,1.8-0.7,3.2-2,4.1c-1.3,0.9-3.3,1.4-5.8,1.4
				c-4.8,0-8.3-1.2-10.5-3.7c-2.2-2.5-3.3-6.2-3.3-11.2v-27.9c0-2.6,0.6-4.8,1.9-6.7c0.5-0.7,1.3-1.4,2.3-2.1c1-0.6,1.7-1,2.3-1h0.9
				L142.2,539L142.2,539z"/>
			<path d="M198.4,581.9c-1.9,0-3.3-0.4-4.2-1.2c-0.8-0.8-1.3-2-1.3-3.6v-20.3c0-4.3-0.9-7.3-2.6-9.1c-1.8-1.8-4.3-2.7-7.6-2.7
				c-1.2,0-2.5,0.3-3.8,0.8c-1.3,0.5-2.4,1.3-3.4,2.3c-1,1-1.8,2.3-2.5,3.8c-0.6,1.5-1,3.3-1,5.3v24.6H170c-1.8,0-3.1-0.4-3.9-1.2
				c-0.8-0.8-1.2-2-1.2-3.6v-53h2.2c1.7,0,2.9,0.4,3.9,1.2c0.9,0.8,1.4,2.2,1.4,4.3v16.1c1.6-2.9,3.4-4.9,5.5-5.9s4.1-1.6,6.1-1.6
				c5.1,0,9.1,1.5,12.1,4.4c3,2.9,4.5,7.6,4.5,14v25.3L198.4,581.9L198.4,581.9z"/>
			<path d="M246.7,553.1c0,1.9-0.3,3.5-0.8,4.9c-0.5,1.4-1.4,2.5-2.8,3.3c-1.4,0.9-3.2,1.5-5.6,1.9c-2.4,0.4-5.4,0.6-9.1,0.6h-10.6
				c0.4,3.6,1.8,6.5,4.1,8.8c2.4,2.3,5.6,3.4,9.6,3.4c3.3,0,6-0.4,8.1-1.3c2.1-0.9,3.7-1.9,4.9-3.1h0.4v3.2c0,2.2-1.2,4.1-3.6,5.7
				c-2.4,1.5-6,2.3-10.9,2.3c-2.9,0-5.6-0.5-8.1-1.6c-2.5-1.1-4.6-2.6-6.4-4.5c-1.8-1.9-3.2-4.2-4.2-6.8c-1-2.6-1.5-5.5-1.5-8.6
				c0-3.5,0.5-6.6,1.5-9.5c1-2.8,2.4-5.3,4.2-7.3c1.8-2,3.9-3.6,6.4-4.7c2.5-1.1,5.1-1.6,7.9-1.6c2.1,0,4.1,0.4,6.1,1.1
				c2,0.8,3.7,1.8,5.2,3.1c1.5,1.3,2.7,2.9,3.6,4.7C246.2,549,246.7,550.9,246.7,553.1z M239.6,553.4c0-1.2-0.2-2.3-0.6-3.3
				c-0.4-1-1-2-1.8-2.8c-0.8-0.8-1.9-1.4-3.1-1.9c-1.3-0.5-2.7-0.7-4.4-0.7c-1.8,0-3.4,0.3-4.8,1c-1.4,0.7-2.6,1.5-3.7,2.6
				c-1,1.1-1.8,2.3-2.4,3.7c-0.6,1.4-0.9,2.7-1,4.1l-0.1,1.8l9.7-0.2c2.6-0.1,4.7-0.2,6.3-0.3s2.8-0.4,3.7-0.7
				c0.9-0.3,1.4-0.7,1.7-1.3C239.5,554.9,239.6,554.2,239.6,553.4z"/>
			<path d="M296.8,533.2c-1-0.9-2-1.4-3-1.7c-1-0.3-2.2-0.4-3.4-0.4c-2.8,0-4.9,0.7-6.1,2c-1.2,1.4-1.8,3.6-1.8,6.7v5.3h12.8v2.6
				c0,1-0.4,1.9-1.2,2.7c-0.8,0.8-2,1.2-3.6,1.2h-8v30.3h-2.8c-1.6,0-2.8-0.5-3.5-1.4c-0.7-1-1.1-2.2-1.1-3.8v-37.7
				c0-1.9,0.3-3.7,1-5.5c0.6-1.8,1.6-3.4,2.8-4.8c1.2-1.4,2.7-2.5,4.5-3.3c1.7-0.8,3.7-1.2,6-1.2c1.3,0,2.4,0.2,3.4,0.5
				c1,0.3,1.8,0.7,2.4,1.3c0.7,0.5,1.2,1.1,1.5,1.7c0.3,0.6,0.5,1.2,0.5,1.7v3.9L296.8,533.2L296.8,533.2z"/>
			<path d="M338.2,563.4c0,6.3-1.6,11.1-4.7,14.4c-3.1,3.3-7.5,4.9-13.3,4.9c-2.6,0-5-0.4-7.2-1.3c-2.2-0.9-4-2.2-5.5-3.9
				c-1.5-1.7-2.7-3.8-3.5-6.3c-0.8-2.5-1.2-5.3-1.2-8.4v-23.8h2.3c3.4,0,5.1,1.9,5.1,5.7v17.7c0,4.4,1,7.7,2.9,10
				c2,2.3,4.5,3.4,7.6,3.4c3.3,0,5.9-1,7.6-3c1.7-2,2.5-5.4,2.5-10v-23.8h2c3.6,0,5.4,1.9,5.4,5.7L338.2,563.4L338.2,563.4z"/>
			<path d="M357.6,539h14.8v2.4c0,1.3-0.5,2.4-1.4,3.2c-0.9,0.8-2.3,1.2-4.3,1.2h-9.1v21.3c0,3.1,0.6,5.3,1.8,6.6
				c1.2,1.4,2.9,2.1,5.3,2.1c1.3,0,2.6-0.1,3.8-0.2c1.2-0.2,2.2-0.5,2.9-1h0.4v2.6c0,1.8-0.7,3.2-2,4.1c-1.3,0.9-3.3,1.4-5.8,1.4
				c-4.8,0-8.3-1.2-10.5-3.7c-2.2-2.5-3.3-6.2-3.3-11.2v-27.9c0-2.6,0.6-4.8,1.9-6.7c0.5-0.7,1.3-1.4,2.3-2.1c1-0.6,1.7-1,2.3-1h0.9
				L357.6,539L357.6,539z"/>
			<path d="M414.9,563.4c0,6.3-1.6,11.1-4.7,14.4c-3.1,3.3-7.5,4.9-13.3,4.9c-2.6,0-5-0.4-7.2-1.3c-2.2-0.9-4-2.2-5.5-3.9
				c-1.5-1.7-2.7-3.8-3.5-6.3c-0.8-2.5-1.2-5.3-1.2-8.4v-23.8h2.3c3.4,0,5.1,1.9,5.1,5.7v17.7c0,4.4,1,7.7,2.9,10
				c2,2.3,4.5,3.4,7.6,3.4c3.3,0,5.9-1,7.6-3c1.7-2,2.5-5.4,2.5-10v-23.8h2c3.6,0,5.4,1.9,5.4,5.7L414.9,563.4L414.9,563.4z"/>
			<path d="M448.4,547.9c-0.7-0.6-1.6-1.1-2.7-1.5s-2.4-0.6-3.9-0.6s-2.7,0.2-3.7,0.6c-1,0.4-1.8,1.1-2.4,2
				c-0.6,0.9-1.1,2.1-1.4,3.7c-0.3,1.5-0.4,3.4-0.4,5.8v24.1h-3.2c-1.4,0-2.4-0.5-3.1-1.4s-1.1-2.1-1.1-3.5v-19.7
				c0-6,1.3-10.5,4-13.6c2.6-3.1,6.1-4.6,10.2-4.6c2.9,0,5,0.5,6.2,1.6c1.2,1.1,1.8,2.3,1.8,3.8v3.5L448.4,547.9L448.4,547.9z"/>
			<path d="M490.4,553.1c0,1.9-0.3,3.5-0.8,4.9c-0.5,1.4-1.4,2.5-2.8,3.3c-1.4,0.9-3.2,1.5-5.6,1.9c-2.4,0.4-5.4,0.6-9.1,0.6h-10.6
				c0.4,3.6,1.8,6.5,4.1,8.8c2.4,2.3,5.6,3.4,9.6,3.4c3.3,0,6-0.4,8.1-1.3s3.7-1.9,4.9-3.1h0.4v3.2c0,2.2-1.2,4.1-3.6,5.7
				c-2.4,1.5-6,2.3-10.9,2.3c-2.9,0-5.6-0.5-8.1-1.6c-2.5-1.1-4.6-2.6-6.4-4.5c-1.8-1.9-3.2-4.2-4.2-6.8c-1-2.6-1.5-5.5-1.5-8.6
				c0-3.5,0.5-6.6,1.5-9.5c1-2.8,2.4-5.3,4.2-7.3c1.8-2,3.9-3.6,6.4-4.7c2.5-1.1,5.1-1.6,7.9-1.6c2.1,0,4.1,0.4,6.1,1.1
				c2,0.8,3.7,1.8,5.2,3.1c1.5,1.3,2.7,2.9,3.6,4.7C489.9,549,490.4,550.9,490.4,553.1z M483.3,553.4c0-1.2-0.2-2.3-0.6-3.3
				s-1-2-1.8-2.8c-0.8-0.8-1.9-1.4-3.1-1.9c-1.3-0.5-2.7-0.7-4.4-0.7c-1.8,0-3.4,0.3-4.8,1c-1.4,0.7-2.6,1.5-3.7,2.6
				c-1,1.1-1.8,2.3-2.4,3.7c-0.6,1.4-0.9,2.7-1,4.1l-0.1,1.8l9.7-0.2c2.6-0.1,4.7-0.2,6.3-0.3s2.8-0.4,3.7-0.7
				c0.9-0.3,1.4-0.7,1.7-1.3C483.2,554.9,483.3,554.2,483.3,553.4z"/>
		</g>
	</g>
</g>
</svg>
